<mxfile host="app.diagrams.net" agent="Mozilla/5.0 (Macintosh; Intel Mac OS X 10_15_7) AppleWebKit/605.1.15 (KHTML, like Gecko) Version/17.6 Safari/605.1.15" version="26.1.1">
  <diagram name="Page-1" id="34tWn5W8BB_YWIeY7pMG">
    <mxGraphModel dx="1699" dy="550" grid="1" gridSize="10" guides="1" tooltips="1" connect="1" arrows="1" fold="1" page="1" pageScale="1" pageWidth="850" pageHeight="1100" math="0" shadow="0">
      <root>
        <mxCell id="0" />
        <mxCell id="1" parent="0" />
        <mxCell id="e8SXs3Ux3NLzT9OmCRad-7" style="edgeStyle=orthogonalEdgeStyle;rounded=0;orthogonalLoop=1;jettySize=auto;html=1;strokeColor=#545B64;strokeWidth=2;endFill=0;endArrow=open;startArrow=none;" edge="1" parent="1">
          <mxGeometry relative="1" as="geometry">
            <mxPoint x="721" y="482" as="sourcePoint" />
            <mxPoint x="721" y="399" as="targetPoint" />
          </mxGeometry>
        </mxCell>
        <mxCell id="e8SXs3Ux3NLzT9OmCRad-8" style="edgeStyle=orthogonalEdgeStyle;rounded=0;orthogonalLoop=1;jettySize=auto;html=1;strokeColor=#545B64;strokeWidth=2;endFill=0;endArrow=open;startArrow=none;" edge="1" parent="1">
          <mxGeometry relative="1" as="geometry">
            <mxPoint x="721" y="510" as="sourcePoint" />
            <mxPoint x="721" y="542" as="targetPoint" />
          </mxGeometry>
        </mxCell>
        <mxCell id="e8SXs3Ux3NLzT9OmCRad-9" style="edgeStyle=orthogonalEdgeStyle;rounded=0;orthogonalLoop=1;jettySize=auto;html=1;strokeColor=#545B64;strokeWidth=2;endFill=0;endArrow=open;startArrow=none;" edge="1" parent="1">
          <mxGeometry relative="1" as="geometry">
            <mxPoint x="742.8045549534233" y="496" as="sourcePoint" />
            <mxPoint x="895.5" y="496" as="targetPoint" />
          </mxGeometry>
        </mxCell>
        <mxCell id="e8SXs3Ux3NLzT9OmCRad-10" value="" style="edgeStyle=orthogonalEdgeStyle;rounded=0;orthogonalLoop=1;jettySize=auto;html=1;strokeColor=#545B64;strokeWidth=2;endFill=0;endArrow=open;startArrow=none;" edge="1" parent="1">
          <mxGeometry relative="1" as="geometry">
            <mxPoint x="335" y="496" as="sourcePoint" />
            <mxPoint x="485.5" y="496" as="targetPoint" />
          </mxGeometry>
        </mxCell>
        <mxCell id="e8SXs3Ux3NLzT9OmCRad-12" value="Procedure for LOCQ update" style="text;html=1;resizable=0;points=[];autosize=1;align=left;verticalAlign=top;spacingTop=-4;fontSize=30;fontStyle=1;fontFamily=Tahoma;" vertex="1" parent="1">
          <mxGeometry x="-210" y="63.5" width="390" height="40" as="geometry" />
        </mxCell>
        <mxCell id="e8SXs3Ux3NLzT9OmCRad-13" value="&lt;font face=&quot;Courier New&quot;&gt;&lt;b&gt;LOCQ&lt;/b&gt;&lt;/font&gt; is a field in &lt;b&gt;&lt;font face=&quot;Courier New&quot;&gt;cch_loc&lt;/font&gt;&lt;/b&gt;, derived from &lt;font face=&quot;Courier New&quot;&gt;&lt;b&gt;locality&lt;/b&gt;&lt;/font&gt; in &lt;b&gt;&lt;font face=&quot;Courier New&quot;&gt;cch&lt;font&gt;_main&lt;/font&gt;&lt;/font&gt;&lt;/b&gt;, that is used by &lt;b&gt;&lt;font face=&quot;Courier New&quot;&gt;search.php&lt;/font&gt;&lt;/b&gt;&amp;nbsp;and &lt;b&gt;&lt;font face=&quot;Courier New&quot;&gt;list.php&lt;/font&gt;&lt;/b&gt; to process various types of locality keyword searches" style="text;html=1;resizable=0;points=[];autosize=1;align=left;verticalAlign=top;spacingTop=-4;fontSize=16;fontFamily=Tahoma;" vertex="1" parent="1">
          <mxGeometry x="-210" y="113.5" width="1200" height="30" as="geometry" />
        </mxCell>
        <mxCell id="e8SXs3Ux3NLzT9OmCRad-14" value="" style="line;strokeWidth=2;html=1;fontSize=14;" vertex="1" parent="1">
          <mxGeometry x="-210" y="133.5" width="1180" height="10" as="geometry" />
        </mxCell>
        <mxCell id="e8SXs3Ux3NLzT9OmCRad-15" value="" style="rounded=0;whiteSpace=wrap;html=1;fillColor=#EAEDED;fontSize=22;fontColor=#FFFFFF;strokeColor=none;labelBackgroundColor=none;" vertex="1" parent="1">
          <mxGeometry x="1106.5" y="52" width="583.5" height="969" as="geometry" />
        </mxCell>
        <mxCell id="e8SXs3Ux3NLzT9OmCRad-16" value="1" style="rounded=1;whiteSpace=wrap;html=1;fillColor=#007CBD;strokeColor=none;fontColor=#FFFFFF;fontStyle=1;fontSize=22;labelBackgroundColor=none;" vertex="1" parent="1">
          <mxGeometry x="1124.5" y="64" width="40" height="38" as="geometry" />
        </mxCell>
        <mxCell id="e8SXs3Ux3NLzT9OmCRad-17" value="2" style="rounded=1;whiteSpace=wrap;html=1;fillColor=#007CBD;strokeColor=none;fontColor=#FFFFFF;fontStyle=1;fontSize=22;labelBackgroundColor=none;" vertex="1" parent="1">
          <mxGeometry x="1123" y="155" width="40" height="38" as="geometry" />
        </mxCell>
        <mxCell id="e8SXs3Ux3NLzT9OmCRad-18" value="3" style="rounded=1;whiteSpace=wrap;html=1;fillColor=#007CBD;strokeColor=none;fontColor=#FFFFFF;fontStyle=1;fontSize=22;labelBackgroundColor=none;" vertex="1" parent="1">
          <mxGeometry x="1123" y="306" width="40" height="38" as="geometry" />
        </mxCell>
        <mxCell id="e8SXs3Ux3NLzT9OmCRad-19" value="4" style="rounded=1;whiteSpace=wrap;html=1;fillColor=#007CBD;strokeColor=none;fontColor=#FFFFFF;fontStyle=1;fontSize=22;labelBackgroundColor=none;" vertex="1" parent="1">
          <mxGeometry x="1123" y="420" width="40" height="38" as="geometry" />
        </mxCell>
        <mxCell id="e8SXs3Ux3NLzT9OmCRad-20" value="5" style="rounded=1;whiteSpace=wrap;html=1;fillColor=#007CBD;strokeColor=none;fontColor=#FFFFFF;fontStyle=1;fontSize=22;labelBackgroundColor=none;" vertex="1" parent="1">
          <mxGeometry x="1124.5" y="537" width="40" height="38" as="geometry" />
        </mxCell>
        <mxCell id="e8SXs3Ux3NLzT9OmCRad-21" value="6" style="rounded=1;whiteSpace=wrap;html=1;fillColor=#007CBD;strokeColor=none;fontColor=#FFFFFF;fontStyle=1;fontSize=22;labelBackgroundColor=none;" vertex="1" parent="1">
          <mxGeometry x="1125.5" y="652" width="40" height="38" as="geometry" />
        </mxCell>
        <mxCell id="e8SXs3Ux3NLzT9OmCRad-22" value="7" style="rounded=1;whiteSpace=wrap;html=1;fillColor=#007CBD;strokeColor=none;fontColor=#FFFFFF;fontStyle=1;fontSize=22;labelBackgroundColor=none;" vertex="1" parent="1">
          <mxGeometry x="1125" y="768" width="40" height="38" as="geometry" />
        </mxCell>
        <mxCell id="e8SXs3Ux3NLzT9OmCRad-23" value="8" style="rounded=1;whiteSpace=wrap;html=1;fillColor=#007CBD;strokeColor=none;fontColor=#FFFFFF;fontStyle=1;fontSize=22;labelBackgroundColor=none;" vertex="1" parent="1">
          <mxGeometry x="1125.5" y="886" width="40" height="38" as="geometry" />
        </mxCell>
        <mxCell id="e8SXs3Ux3NLzT9OmCRad-24" value="This is the BIM or Biological Informatics Manager user directory on cynips. Each new BIM will have their own directory and the data from the previous manager will need to be copied to the new manager&#39;s user login directory. &amp;nbsp;From the&lt;font face=&quot;Courier New&quot;&gt;&lt;b&gt; /UCJEPS-clone/bulkload/ &lt;/b&gt;&lt;/font&gt;directory, all database update SQL and SH scripts are run." style="text;html=1;align=left;verticalAlign=top;spacingTop=-4;fontSize=14;labelBackgroundColor=none;whiteSpace=wrap;fontFamily=Tahoma;" vertex="1" parent="1">
          <mxGeometry x="1176" y="63.5" width="504" height="96.5" as="geometry" />
        </mxCell>
        <mxCell id="e8SXs3Ux3NLzT9OmCRad-25" value="This procedure is run after all updates to the main database. &amp;nbsp;New records will not have LOCQ field data needed for searches. &amp;nbsp;Updated specimens will have inaccurate LOCQ data leftover from a previous version. &amp;nbsp;The locality field is analyzed, error corrected, and grouped by keyword frequency into 3 text tables,&amp;nbsp;&lt;font face=&quot;Courier New&quot;&gt;&lt;b&gt;CCH1_LOCS_HIGH.out&lt;/b&gt;&lt;/font&gt;,&amp;nbsp;&lt;font face=&quot;Courier New&quot;&gt;&lt;b&gt;CCH1_LOCS_MED.out&lt;/b&gt;&lt;/font&gt;,&amp;nbsp;&lt;font face=&quot;Courier New&quot;&gt;&lt;b&gt;CCH1_LOCS_LOW.out&lt;/b&gt;&lt;/font&gt;. &amp;nbsp;These are searched to perform 1-3 unordered, keyword searches. &amp;nbsp;For the ordered, as-is, keyword search, a third table is created with the full processed locality data,&amp;nbsp;&lt;font face=&quot;Courier New&quot;&gt;&lt;b&gt;CCH1_LOCS_FULL.out&lt;/b&gt;&lt;/font&gt;" style="text;html=1;align=left;verticalAlign=top;spacingTop=-4;fontSize=14;labelBackgroundColor=none;whiteSpace=wrap;fontFamily=Tahoma;" vertex="1" parent="1">
          <mxGeometry x="1175" y="155.5" width="505" height="144.5" as="geometry" />
        </mxCell>
        <mxCell id="e8SXs3Ux3NLzT9OmCRad-26" value="&lt;span&gt;Lorem ipsum dolor sit amet, consectetur adipiscing elit, sed do eiusmod tempor incididunt ut labore et dolore magna aliqua. Ut enim ad minim veniam, quis nostrud exercitation ullamco laboris nisi ut aliquip ex ea commodo consequat. Duis aute irure dolor in reprehenderit in voluptate velit esse cillum dolore eu fugiat nulla pariatur. Excepteur sint occaecat cupidatat non proident, sunt in culpa qui officia deserunt mollit anim id est laborum.&lt;/span&gt;&lt;br&gt;" style="text;html=1;align=left;verticalAlign=top;spacingTop=-4;fontSize=14;labelBackgroundColor=none;whiteSpace=wrap;" vertex="1" parent="1">
          <mxGeometry x="1175" y="304.5" width="450" height="117" as="geometry" />
        </mxCell>
        <mxCell id="e8SXs3Ux3NLzT9OmCRad-27" value="&lt;span&gt;Lorem ipsum dolor sit amet, consectetur adipiscing elit, sed do eiusmod tempor incididunt ut labore et dolore magna aliqua. Ut enim ad minim veniam, quis nostrud exercitation ullamco laboris nisi ut aliquip ex ea commodo consequat. Duis aute irure dolor in reprehenderit in voluptate velit esse cillum dolore eu fugiat nulla pariatur. Excepteur sint occaecat cupidatat non proident, sunt in culpa qui officia deserunt mollit anim id est laborum.&lt;/span&gt;&lt;br&gt;" style="text;html=1;align=left;verticalAlign=top;spacingTop=-4;fontSize=14;labelBackgroundColor=none;whiteSpace=wrap;" vertex="1" parent="1">
          <mxGeometry x="1175" y="420.5" width="450" height="121" as="geometry" />
        </mxCell>
        <mxCell id="e8SXs3Ux3NLzT9OmCRad-28" value="&lt;span&gt;Lorem ipsum dolor sit amet, consectetur adipiscing elit, sed do eiusmod tempor incididunt ut labore et dolore magna aliqua. Ut enim ad minim veniam, quis nostrud exercitation ullamco laboris nisi ut aliquip ex ea commodo consequat. Duis aute irure dolor in reprehenderit in voluptate velit esse cillum dolore eu fugiat nulla pariatur. Excepteur sint occaecat cupidatat non proident, sunt in culpa qui officia deserunt mollit anim id est laborum.&lt;/span&gt;&lt;br&gt;" style="text;html=1;align=left;verticalAlign=top;spacingTop=-4;fontSize=14;labelBackgroundColor=none;whiteSpace=wrap;" vertex="1" parent="1">
          <mxGeometry x="1176" y="537.5" width="449" height="114" as="geometry" />
        </mxCell>
        <mxCell id="e8SXs3Ux3NLzT9OmCRad-29" value="&lt;span&gt;Lorem ipsum dolor sit amet, consectetur adipiscing elit, sed do eiusmod tempor incididunt ut labore et dolore magna aliqua. Ut enim ad minim veniam, quis nostrud exercitation ullamco laboris nisi ut aliquip ex ea commodo consequat. Duis aute irure dolor in reprehenderit in voluptate velit esse cillum dolore eu fugiat nulla pariatur. Excepteur sint occaecat cupidatat non proident, sunt in culpa qui officia deserunt mollit anim id est laborum.&lt;/span&gt;&lt;br&gt;" style="text;html=1;align=left;verticalAlign=top;spacingTop=-4;fontSize=14;labelBackgroundColor=none;whiteSpace=wrap;" vertex="1" parent="1">
          <mxGeometry x="1176" y="653.5" width="450" height="118" as="geometry" />
        </mxCell>
        <mxCell id="e8SXs3Ux3NLzT9OmCRad-30" value="&lt;span&gt;Lorem ipsum dolor sit amet, consectetur adipiscing elit, sed do eiusmod tempor incididunt ut labore et dolore magna aliqua. Ut enim ad minim veniam, quis nostrud exercitation ullamco laboris nisi ut aliquip ex ea commodo consequat. Duis aute irure dolor in reprehenderit in voluptate velit esse cillum dolore eu fugiat nulla pariatur. Excepteur sint occaecat cupidatat non proident, sunt in culpa qui officia deserunt mollit anim id est laborum.&lt;/span&gt;&lt;br&gt;" style="text;html=1;align=left;verticalAlign=top;spacingTop=-4;fontSize=14;labelBackgroundColor=none;whiteSpace=wrap;" vertex="1" parent="1">
          <mxGeometry x="1176" y="768.5" width="449" height="113" as="geometry" />
        </mxCell>
        <mxCell id="e8SXs3Ux3NLzT9OmCRad-31" value="&lt;span&gt;Lorem ipsum dolor sit amet, consectetur adipiscing elit, sed do eiusmod tempor incididunt ut labore et dolore magna aliqua. Ut enim ad minim veniam, quis nostrud exercitation ullamco laboris nisi ut aliquip ex ea commodo consequat. Duis aute irure dolor in reprehenderit in voluptate velit esse cillum dolore eu fugiat nulla pariatur. Excepteur sint occaecat cupidatat non proident, sunt in culpa qui officia deserunt mollit anim id est laborum.&lt;/span&gt;&lt;br&gt;" style="text;html=1;align=left;verticalAlign=top;spacingTop=-4;fontSize=14;labelBackgroundColor=none;whiteSpace=wrap;" vertex="1" parent="1">
          <mxGeometry x="1176" y="887.5" width="449" height="124" as="geometry" />
        </mxCell>
        <mxCell id="e8SXs3Ux3NLzT9OmCRad-32" value="3" style="rounded=1;whiteSpace=wrap;html=1;fillColor=#007CBD;strokeColor=none;fontColor=#FFFFFF;fontStyle=1;fontSize=22;" vertex="1" parent="1">
          <mxGeometry x="445.5" y="562" width="40" height="38" as="geometry" />
        </mxCell>
        <mxCell id="e8SXs3Ux3NLzT9OmCRad-38" value="" style="whiteSpace=wrap;html=1;dashed=0;fontColor=#AAB7B8;fontStyle=0;align=left;verticalAlign=top;strokeColor=#3333FF;fillColor=none;gradientColor=none;spacingLeft=30;container=1;pointerEvents=0;collapsible=0;recursiveResize=0;strokeWidth=2;" vertex="1" parent="1">
          <mxGeometry x="435.5" y="160" width="614.5" height="920" as="geometry" />
        </mxCell>
        <mxCell id="e8SXs3Ux3NLzT9OmCRad-40" value="BNHM server cluster" style="text;strokeColor=none;fillColor=none;html=1;fontSize=24;fontStyle=1;verticalAlign=middle;align=center;" vertex="1" parent="e8SXs3Ux3NLzT9OmCRad-38">
          <mxGeometry x="52.5" y="15" width="247.5" height="40" as="geometry" />
        </mxCell>
        <mxCell id="e8SXs3Ux3NLzT9OmCRad-41" value="" style="whiteSpace=wrap;html=1;dashed=0;fontColor=#AAB7B8;fontStyle=0;align=left;verticalAlign=top;strokeColor=#660033;fillColor=none;gradientColor=none;spacingLeft=30;container=1;pointerEvents=0;collapsible=0;recursiveResize=0;strokeWidth=2;" vertex="1" parent="e8SXs3Ux3NLzT9OmCRad-38">
          <mxGeometry x="34.5" y="600" width="425.5" height="300" as="geometry" />
        </mxCell>
        <mxCell id="e8SXs3Ux3NLzT9OmCRad-42" value="cynips ucjepsweb website directory" style="text;strokeColor=none;fillColor=none;html=1;fontSize=18;fontStyle=1;verticalAlign=middle;align=center;" vertex="1" parent="e8SXs3Ux3NLzT9OmCRad-41">
          <mxGeometry x="48" y="10" width="350" height="40" as="geometry" />
        </mxCell>
        <mxCell id="e8SXs3Ux3NLzT9OmCRad-43" value="" style="sketch=0;aspect=fixed;pointerEvents=1;shadow=0;dashed=0;html=1;strokeColor=none;labelPosition=center;verticalLabelPosition=bottom;verticalAlign=top;align=center;fillColor=#00188D;shape=mxgraph.mscae.enterprise.web_server" vertex="1" parent="e8SXs3Ux3NLzT9OmCRad-41">
          <mxGeometry x="10" y="10" width="38" height="50" as="geometry" />
        </mxCell>
        <mxCell id="e8SXs3Ux3NLzT9OmCRad-44" value="" style="whiteSpace=wrap;html=1;dashed=0;fontColor=#AAB7B8;fontStyle=0;align=left;verticalAlign=top;strokeColor=#660033;fillColor=none;gradientColor=none;spacingLeft=30;container=1;pointerEvents=0;collapsible=0;recursiveResize=0;strokeWidth=2;" vertex="1" parent="e8SXs3Ux3NLzT9OmCRad-38">
          <mxGeometry x="189" y="607" width="425.5" height="300" as="geometry" />
        </mxCell>
        <mxCell id="e8SXs3Ux3NLzT9OmCRad-45" value="andricus MariaDB database" style="text;strokeColor=none;fillColor=none;html=1;fontSize=18;fontStyle=1;verticalAlign=middle;align=center;" vertex="1" parent="e8SXs3Ux3NLzT9OmCRad-44">
          <mxGeometry x="61.75" y="10" width="247.5" height="40" as="geometry" />
        </mxCell>
        <mxCell id="e8SXs3Ux3NLzT9OmCRad-39" value="" style="sketch=0;aspect=fixed;pointerEvents=1;shadow=0;dashed=0;html=1;strokeColor=none;labelPosition=center;verticalLabelPosition=bottom;verticalAlign=top;align=center;fillColor=#00188D;shape=mxgraph.mscae.enterprise.database_server" vertex="1" parent="e8SXs3Ux3NLzT9OmCRad-44">
          <mxGeometry x="12" y="7.5" width="38" height="50" as="geometry" />
        </mxCell>
        <mxCell id="e8SXs3Ux3NLzT9OmCRad-46" value="" style="sketch=0;aspect=fixed;pointerEvents=1;shadow=0;dashed=0;html=1;strokeColor=none;labelPosition=center;verticalLabelPosition=bottom;verticalAlign=top;align=center;fillColor=#00188D;shape=mxgraph.mscae.enterprise.cluster_server" vertex="1" parent="e8SXs3Ux3NLzT9OmCRad-38">
          <mxGeometry x="12.5" y="10" width="40" height="50" as="geometry" />
        </mxCell>
        <mxCell id="e8SXs3Ux3NLzT9OmCRad-47" value="" style="whiteSpace=wrap;html=1;dashed=0;fontColor=#AAB7B8;fontStyle=0;align=left;verticalAlign=top;strokeColor=#660033;fillColor=none;gradientColor=none;spacingLeft=30;container=1;pointerEvents=0;collapsible=0;recursiveResize=0;strokeWidth=2;" vertex="1" parent="e8SXs3Ux3NLzT9OmCRad-38">
          <mxGeometry x="10" y="70" width="590" height="134" as="geometry" />
        </mxCell>
        <mxCell id="e8SXs3Ux3NLzT9OmCRad-48" value="cynips BIM user directory" style="text;strokeColor=none;fillColor=none;html=1;fontSize=18;fontStyle=1;verticalAlign=middle;align=center;" vertex="1" parent="e8SXs3Ux3NLzT9OmCRad-47">
          <mxGeometry x="57.5" width="247.5" height="40" as="geometry" />
        </mxCell>
        <mxCell id="e8SXs3Ux3NLzT9OmCRad-49" value="" style="sketch=0;aspect=fixed;pointerEvents=1;shadow=0;dashed=0;html=1;strokeColor=none;labelPosition=center;verticalLabelPosition=bottom;verticalAlign=top;align=center;fillColor=#00188D;shape=mxgraph.azure.user;fontSize=10;" vertex="1" parent="e8SXs3Ux3NLzT9OmCRad-47">
          <mxGeometry x="34" y="30" width="23.5" height="25" as="geometry" />
        </mxCell>
        <mxCell id="e8SXs3Ux3NLzT9OmCRad-50" value="" style="sketch=0;aspect=fixed;pointerEvents=1;shadow=0;dashed=0;html=1;strokeColor=none;labelPosition=center;verticalLabelPosition=bottom;verticalAlign=top;align=center;fillColor=#00188D;shape=mxgraph.mscae.enterprise.server_generic" vertex="1" parent="e8SXs3Ux3NLzT9OmCRad-47">
          <mxGeometry x="10" y="5" width="24" height="50" as="geometry" />
        </mxCell>
        <mxCell id="e8SXs3Ux3NLzT9OmCRad-60" value="1" style="rounded=1;whiteSpace=wrap;html=1;fillColor=#007CBD;strokeColor=none;fontColor=#FFFFFF;fontStyle=1;fontSize=22;labelBackgroundColor=none;" vertex="1" parent="e8SXs3Ux3NLzT9OmCRad-47">
          <mxGeometry x="544.5" y="5" width="40" height="38" as="geometry" />
        </mxCell>
        <mxCell id="e8SXs3Ux3NLzT9OmCRad-35" value="6" style="rounded=1;whiteSpace=wrap;html=1;fillColor=#007CBD;strokeColor=none;fontColor=#FFFFFF;fontStyle=1;fontSize=22;" vertex="1" parent="e8SXs3Ux3NLzT9OmCRad-38">
          <mxGeometry x="74.5" y="400" width="40" height="38" as="geometry" />
        </mxCell>
        <mxCell id="e8SXs3Ux3NLzT9OmCRad-37" value="8" style="rounded=1;whiteSpace=wrap;html=1;fillColor=#007CBD;strokeColor=none;fontColor=#FFFFFF;fontStyle=1;fontSize=22;" vertex="1" parent="e8SXs3Ux3NLzT9OmCRad-38">
          <mxGeometry x="149" y="390" width="40" height="38" as="geometry" />
        </mxCell>
        <mxCell id="e8SXs3Ux3NLzT9OmCRad-36" value="7" style="rounded=1;whiteSpace=wrap;html=1;fillColor=#007CBD;strokeColor=none;fontColor=#FFFFFF;fontStyle=1;fontSize=22;" vertex="1" parent="e8SXs3Ux3NLzT9OmCRad-38">
          <mxGeometry x="184.5" y="460" width="40" height="38" as="geometry" />
        </mxCell>
        <mxCell id="e8SXs3Ux3NLzT9OmCRad-34" value="5" style="rounded=1;whiteSpace=wrap;html=1;fillColor=#007CBD;strokeColor=none;fontColor=#FFFFFF;fontStyle=1;fontSize=22;" vertex="1" parent="e8SXs3Ux3NLzT9OmCRad-38">
          <mxGeometry x="287.25" y="450" width="40" height="38" as="geometry" />
        </mxCell>
        <mxCell id="e8SXs3Ux3NLzT9OmCRad-33" value="4" style="rounded=1;whiteSpace=wrap;html=1;fillColor=#007CBD;strokeColor=none;fontColor=#FFFFFF;fontStyle=1;fontSize=22;" vertex="1" parent="e8SXs3Ux3NLzT9OmCRad-38">
          <mxGeometry x="354.5" y="438" width="40" height="38" as="geometry" />
        </mxCell>
        <mxCell id="e8SXs3Ux3NLzT9OmCRad-6" style="edgeStyle=orthogonalEdgeStyle;rounded=0;orthogonalLoop=1;jettySize=auto;html=1;strokeColor=#545B64;strokeWidth=2;endFill=0;endArrow=open;startArrow=none;" edge="1" parent="e8SXs3Ux3NLzT9OmCRad-38">
          <mxGeometry relative="1" as="geometry">
            <mxPoint x="344.49999999999955" y="310" as="sourcePoint" />
            <mxPoint x="480" y="310" as="targetPoint" />
            <Array as="points">
              <mxPoint x="412.5" y="310" />
              <mxPoint x="412.5" y="350" />
              <mxPoint x="480.5" y="350" />
            </Array>
          </mxGeometry>
        </mxCell>
        <mxCell id="e8SXs3Ux3NLzT9OmCRad-5" style="edgeStyle=orthogonalEdgeStyle;rounded=0;orthogonalLoop=1;jettySize=auto;html=1;strokeColor=#545B64;strokeWidth=2;endFill=0;endArrow=open;startArrow=none;" edge="1" parent="e8SXs3Ux3NLzT9OmCRad-38">
          <mxGeometry relative="1" as="geometry">
            <mxPoint x="406.5" y="320.28" as="sourcePoint" />
            <mxPoint x="406.49999999999955" y="270.001893951174" as="targetPoint" />
            <Array as="points">
              <mxPoint x="614.5" y="320.28" />
              <mxPoint x="614.5" y="295.28" />
              <mxPoint x="406.5" y="295.28" />
            </Array>
          </mxGeometry>
        </mxCell>
        <mxCell id="e8SXs3Ux3NLzT9OmCRad-4" style="edgeStyle=orthogonalEdgeStyle;rounded=0;orthogonalLoop=1;jettySize=auto;html=1;strokeColor=#545B64;strokeWidth=2;endFill=0;endArrow=open;startArrow=none;" edge="1" parent="e8SXs3Ux3NLzT9OmCRad-38">
          <mxGeometry relative="1" as="geometry">
            <Array as="points">
              <mxPoint x="416.5" y="498" />
              <mxPoint x="416.5" y="362" />
            </Array>
            <mxPoint x="364.5" y="498" as="sourcePoint" />
            <mxPoint x="482.99999999999955" y="362" as="targetPoint" />
          </mxGeometry>
        </mxCell>
        <mxCell id="e8SXs3Ux3NLzT9OmCRad-3" style="edgeStyle=orthogonalEdgeStyle;rounded=0;orthogonalLoop=1;jettySize=auto;html=1;strokeColor=#545B64;strokeWidth=2;endFill=0;endArrow=open;startArrow=none;" edge="1" parent="e8SXs3Ux3NLzT9OmCRad-38">
          <mxGeometry relative="1" as="geometry">
            <mxPoint x="109.75" y="359.9999999999998" as="sourcePoint" />
            <mxPoint x="228.24999999999955" y="360" as="targetPoint" />
            <Array as="points">
              <mxPoint x="110.25" y="310" />
              <mxPoint x="228.25" y="310" />
            </Array>
          </mxGeometry>
        </mxCell>
        <mxCell id="e8SXs3Ux3NLzT9OmCRad-51" value="" style="whiteSpace=wrap;html=1;dashed=0;fontColor=#AAB7B8;fontStyle=0;align=left;verticalAlign=top;strokeColor=#3333FF;fillColor=none;gradientColor=none;spacingLeft=30;container=1;pointerEvents=0;collapsible=0;recursiveResize=0;strokeWidth=2;" vertex="1" parent="1">
          <mxGeometry x="-210" y="160" width="614.5" height="920" as="geometry" />
        </mxCell>
        <mxCell id="e8SXs3Ux3NLzT9OmCRad-52" value="local BIM laptop" style="text;strokeColor=none;fillColor=none;html=1;fontSize=24;fontStyle=1;verticalAlign=middle;align=center;" vertex="1" parent="e8SXs3Ux3NLzT9OmCRad-51">
          <mxGeometry x="52.5" y="15" width="247.5" height="40" as="geometry" />
        </mxCell>
        <mxCell id="e8SXs3Ux3NLzT9OmCRad-53" value="" style="sketch=0;aspect=fixed;pointerEvents=1;shadow=0;dashed=0;html=1;strokeColor=none;labelPosition=center;verticalLabelPosition=bottom;verticalAlign=top;align=center;fillColor=#00188D;shape=mxgraph.azure.laptop" vertex="1" parent="e8SXs3Ux3NLzT9OmCRad-51">
          <mxGeometry x="9" y="13" width="71.67" height="43" as="geometry" />
        </mxCell>
        <mxCell id="e8SXs3Ux3NLzT9OmCRad-55" value="Classname" style="swimlane;html=1;fontStyle=0;childLayout=stackLayout;horizontal=1;startSize=26;fillColor=none;horizontalStack=0;resizeParent=1;resizeLast=0;collapsible=1;marginBottom=0;swimlaneFillColor=#ffffff;rounded=0;shadow=0;comic=0;labelBackgroundColor=none;strokeWidth=1;fontFamily=Verdana;fontSize=10;align=center;" vertex="1" parent="e8SXs3Ux3NLzT9OmCRad-51">
          <mxGeometry x="390" y="760" width="160" height="110" as="geometry" />
        </mxCell>
        <mxCell id="e8SXs3Ux3NLzT9OmCRad-56" value="+ field: type" style="text;html=1;strokeColor=none;fillColor=none;align=left;verticalAlign=top;spacingLeft=4;spacingRight=4;whiteSpace=wrap;overflow=hidden;rotatable=0;points=[[0,0.5],[1,0.5]];portConstraint=eastwest;" vertex="1" parent="e8SXs3Ux3NLzT9OmCRad-55">
          <mxGeometry y="26" width="160" height="26" as="geometry" />
        </mxCell>
        <mxCell id="e8SXs3Ux3NLzT9OmCRad-57" value="+ field: type" style="text;html=1;strokeColor=none;fillColor=none;align=left;verticalAlign=top;spacingLeft=4;spacingRight=4;whiteSpace=wrap;overflow=hidden;rotatable=0;points=[[0,0.5],[1,0.5]];portConstraint=eastwest;" vertex="1" parent="e8SXs3Ux3NLzT9OmCRad-55">
          <mxGeometry y="52" width="160" height="26" as="geometry" />
        </mxCell>
        <mxCell id="e8SXs3Ux3NLzT9OmCRad-58" value="+ field: type" style="text;html=1;strokeColor=none;fillColor=none;align=left;verticalAlign=top;spacingLeft=4;spacingRight=4;whiteSpace=wrap;overflow=hidden;rotatable=0;points=[[0,0.5],[1,0.5]];portConstraint=eastwest;" vertex="1" parent="e8SXs3Ux3NLzT9OmCRad-55">
          <mxGeometry y="78" width="160" height="26" as="geometry" />
        </mxCell>
        <mxCell id="e8SXs3Ux3NLzT9OmCRad-11" value="" style="edgeStyle=orthogonalEdgeStyle;rounded=0;orthogonalLoop=1;jettySize=auto;html=1;strokeColor=#545B64;strokeWidth=2;endFill=0;endArrow=open;startArrow=none;" edge="1" parent="e8SXs3Ux3NLzT9OmCRad-51">
          <mxGeometry relative="1" as="geometry">
            <mxPoint x="519.9954071705558" y="160" as="sourcePoint" />
            <mxPoint x="677.01" y="159.99999999999977" as="targetPoint" />
          </mxGeometry>
        </mxCell>
        <mxCell id="e8SXs3Ux3NLzT9OmCRad-1" value="" style="edgeStyle=orthogonalEdgeStyle;rounded=0;orthogonalLoop=1;jettySize=auto;html=1;strokeColor=#545B64;strokeWidth=2;endFill=0;endArrow=open;startArrow=none;" edge="1" parent="e8SXs3Ux3NLzT9OmCRad-51">
          <mxGeometry relative="1" as="geometry">
            <mxPoint x="467.49000000000024" y="360" as="sourcePoint" />
            <mxPoint x="614.5045928294442" y="360" as="targetPoint" />
          </mxGeometry>
        </mxCell>
        <mxCell id="e8SXs3Ux3NLzT9OmCRad-2" value="" style="edgeStyle=orthogonalEdgeStyle;rounded=0;orthogonalLoop=1;jettySize=auto;html=1;strokeColor=#545B64;strokeWidth=2;endFill=0;endArrow=open;startArrow=none;" edge="1" parent="e8SXs3Ux3NLzT9OmCRad-51">
          <mxGeometry relative="1" as="geometry">
            <mxPoint x="474.0000000000002" y="300" as="sourcePoint" />
            <mxPoint x="614.5" y="300" as="targetPoint" />
          </mxGeometry>
        </mxCell>
        <mxCell id="e8SXs3Ux3NLzT9OmCRad-61" value="2" style="rounded=1;whiteSpace=wrap;html=1;fillColor=#007CBD;strokeColor=none;fontColor=#FFFFFF;fontStyle=1;fontSize=22;labelBackgroundColor=none;" vertex="1" parent="e8SXs3Ux3NLzT9OmCRad-51">
          <mxGeometry x="570" y="4" width="40" height="38" as="geometry" />
        </mxCell>
        <mxCell id="e8SXs3Ux3NLzT9OmCRad-54" value="&lt;p style=&quot;margin:0px;margin-top:4px;text-align:center;&quot;&gt;&lt;i&gt;&amp;lt;&amp;lt;Interface&amp;gt;&amp;gt;&lt;/i&gt;&lt;br/&gt;&lt;b&gt;Interface&lt;/b&gt;&lt;/p&gt;&lt;hr size=&quot;1&quot;/&gt;&lt;p style=&quot;margin:0px;margin-left:4px;&quot;&gt;+ field1: Type&lt;br/&gt;+ field2: Type&lt;/p&gt;&lt;hr size=&quot;1&quot;/&gt;&lt;p style=&quot;margin:0px;margin-left:4px;&quot;&gt;+ method1(Type): Type&lt;br/&gt;+ method2(Type, Type): Type&lt;/p&gt;" style="verticalAlign=top;align=left;overflow=fill;fontSize=12;fontFamily=Helvetica;html=1;rounded=0;shadow=0;comic=0;labelBackgroundColor=none;strokeWidth=1" vertex="1" parent="1">
          <mxGeometry x="190" y="744" width="190" height="140" as="geometry" />
        </mxCell>
      </root>
    </mxGraphModel>
  </diagram>
</mxfile>
